<?xml version="1.0" encoding="utf-8" standalone="no"?>
<!DOCTYPE svg PUBLIC "-//W3C//DTD SVG 1.1//EN"
  "http://www.w3.org/Graphics/SVG/1.1/DTD/svg11.dtd">
<svg xmlns:xlink="http://www.w3.org/1999/xlink" width="232.8384pt" height="100.632pt" viewBox="0 0 232.8384 100.632" xmlns="http://www.w3.org/2000/svg" version="1.1">
 <metadata>
  <rdf:RDF xmlns:dc="http://purl.org/dc/elements/1.1/" xmlns:cc="http://creativecommons.org/ns#" xmlns:rdf="http://www.w3.org/1999/02/22-rdf-syntax-ns#">
   <cc:Work>
    <dc:type rdf:resource="http://purl.org/dc/dcmitype/StillImage"/>
    <dc:date>2026-08-03T07:36:42.917602</dc:date>
    <dc:format>image/svg+xml</dc:format>
    <dc:creator>
     <cc:Agent>
      <dc:title>Matplotlib v3.10.8, https://matplotlib.org/</dc:title>
     </cc:Agent>
    </dc:creator>
   </cc:Work>
  </rdf:RDF>
 </metadata>
 <defs>
  <style type="text/css">*{stroke-linejoin: round; stroke-linecap: butt}</style>
 </defs>
 <g id="figure_1">
  <g id="patch_1">
   <path d="M 0 100.632 
L 232.8384 100.632 
L 232.8384 0 
L 0 0 
L 0 100.632 
z
" style="fill: none"/>
  </g>
  <g id="axes_1">
   <g id="patch_2">
    <path d="M 120.1976 82.272 
C 121.343277 82.272 122.442185 81.816818 123.252301 81.006701 
C 124.062418 80.196585 124.5176 79.097677 124.5176 77.952 
C 124.5176 76.806323 124.062418 75.707415 123.252301 74.897299 
C 122.442185 74.087182 121.343277 73.632 120.1976 73.632 
C 119.051923 73.632 117.953015 74.087182 117.142899 74.897299 
C 116.332782 75.707415 115.8776 76.806323 115.8776 77.952 
C 115.8776 79.097677 116.332782 80.196585 117.142899 81.006701 
C 117.953015 81.816818 119.051923 82.272 120.1976 82.272 
L 120.1976 82.272 
z
" clip-path="url(#p2359533df8)" style="fill: none; stroke: #000000; stroke-width: 2; stroke-linejoin: miter"/>
   </g>
   <g id="line2d_1">
    <path d="M 29.4776 77.952 
L 47.4776 77.952 
L 65.4776 77.952 
" clip-path="url(#p2359533df8)" style="fill: none; stroke: #000000; stroke-width: 2; stroke-linecap: round"/>
   </g>
   <g id="line2d_2">
    <path d="M 65.4776 77.952 
L 78.9776 77.952 
L 92.4776 77.952 
" clip-path="url(#p2359533df8)" style="fill: none; stroke: #000000; stroke-width: 2; stroke-linecap: round"/>
   </g>
   <g id="line2d_3">
    <path d="M 72.4976 77.952 
L 92.4776 77.952 
M 124.5176 77.952 
L 144.4976 77.952 
" clip-path="url(#p2359533df8)" style="fill: none; stroke: #000000; stroke-width: 2; stroke-linecap: round"/>
   </g>
   <g id="line2d_4">
    <path d="M 92.4776 59.952 
L 115.8776 77.952 
L 92.4776 95.952 
L 92.4776 59.952 
" clip-path="url(#p2359533df8)" style="fill: none; stroke: #000000; stroke-width: 2; stroke-linecap: round"/>
   </g>
   <g id="line2d_5">
    <path d="M 124.5176 77.952 
L 142.5176 77.952 
L 160.5176 77.952 
" clip-path="url(#p2359533df8)" style="fill: none; stroke: #000000; stroke-width: 2; stroke-linecap: round"/>
   </g>
   <g id="line2d_6">
    <path d="M 160.5176 77.952 
L 178.5176 77.952 
L 196.5176 77.952 
" clip-path="url(#p2359533df8)" style="fill: none; stroke: #000000; stroke-width: 2; stroke-linecap: round"/>
   </g>
   <g id="line2d_7">
    <path d="M 65.4776 77.952 
L 65.4776 55.452 
L 65.4776 32.952 
" clip-path="url(#p2359533df8)" style="fill: none; stroke: #000000; stroke-width: 2; stroke-linecap: round"/>
   </g>
   <g id="line2d_8">
    <path d="M 65.4776 32.952 
L 94.9976 32.952 
L 97.9976 23.952 
L 103.9976 41.952 
L 109.9976 23.952 
L 115.9976 41.952 
L 121.9976 23.952 
L 127.9976 41.952 
L 130.9976 32.952 
L 160.5176 32.952 
" clip-path="url(#p2359533df8)" style="fill: none; stroke: #000000; stroke-width: 2; stroke-linecap: round"/>
   </g>
   <g id="line2d_9">
    <path d="M 160.5176 32.952 
L 160.5176 55.452 
L 160.5176 77.952 
" clip-path="url(#p2359533df8)" style="fill: none; stroke: #000000; stroke-width: 2; stroke-linecap: round"/>
   </g>
   <g id="patch_3">
    <path d="M 65.4776 80.652 
C 66.193648 80.652 66.880466 80.367511 67.386788 79.861188 
C 67.893111 79.354866 68.1776 78.668048 68.1776 77.952 
C 68.1776 77.235952 67.893111 76.549134 67.386788 76.042812 
C 66.880466 75.536489 66.193648 75.252 65.4776 75.252 
C 64.761552 75.252 64.074734 75.536489 63.568412 76.042812 
C 63.062089 76.549134 62.7776 77.235952 62.7776 77.952 
C 62.7776 78.668048 63.062089 79.354866 63.568412 79.861188 
C 64.074734 80.367511 64.761552 80.652 65.4776 80.652 
z
" clip-path="url(#p2359533df8)" style="stroke: #000000; stroke-width: 2; stroke-linejoin: miter"/>
   </g>
   <g id="patch_4">
    <path d="M 160.5176 80.652 
C 161.233648 80.652 161.920466 80.367511 162.426788 79.861188 
C 162.933111 79.354866 163.2176 78.668048 163.2176 77.952 
C 163.2176 77.235952 162.933111 76.549134 162.426788 76.042812 
C 161.920466 75.536489 161.233648 75.252 160.5176 75.252 
C 159.801552 75.252 159.114734 75.536489 158.608412 76.042812 
C 158.102089 76.549134 157.8176 77.235952 157.8176 77.952 
C 157.8176 78.668048 158.102089 79.354866 158.608412 79.861188 
C 159.114734 80.367511 159.801552 80.652 160.5176 80.652 
z
" clip-path="url(#p2359533df8)" style="stroke: #000000; stroke-width: 2; stroke-linejoin: miter"/>
   </g>
   <g id="text_1">
    <!-- $R_\mathrm{f}$ -->
    <g transform="translate(105.352814 15.452524) scale(0.16 -0.16)">
     <defs>
      <path id="CMMI12-52" d="M 2355 3924 
C 2413 4160 2438 4160 2688 4160 
L 3149 4160 
C 3699 4160 4109 3995 4109 3499 
C 4109 3175 3942 2240 2656 2240 
L 1933 2240 
L 2355 3924 
z
M 3245 2169 
C 4038 2341 4659 2851 4659 3398 
C 4659 3894 4154 4352 3264 4352 
L 1530 4352 
C 1402 4352 1344 4352 1344 4226 
C 1344 4160 1389 4160 1510 4160 
C 1894 4160 1894 4112 1894 4045 
C 1894 4033 1894 3994 1869 3899 
L 1005 479 
C 947 256 934 192 493 192 
C 346 192 301 192 301 71 
C 301 7 371 7 390 7 
C 506 7 640 7 762 7 
L 1517 7 
C 1632 7 1766 7 1882 7 
C 1933 7 2003 7 2003 128 
C 2003 192 1946 192 1850 192 
C 1459 192 1459 243 1459 306 
C 1459 313 1459 357 1472 407 
L 1901 2112 
L 2669 2112 
C 3277 2112 3392 1731 3392 1522 
C 3392 1427 3328 1179 3283 1014 
C 3213 723 3194 652 3194 532 
C 3194 82 3565 -128 3994 -128 
C 4512 -128 4736 501 4736 591 
C 4736 635 4704 654 4666 654 
C 4614 654 4602 616 4589 565 
C 4435 114 4173 0 4013 0 
C 3853 0 3750 70 3750 356 
C 3750 509 3827 1088 3834 1120 
C 3866 1355 3866 1380 3866 1432 
C 3866 1896 3488 2093 3245 2169 
z
" transform="scale(0.015625)"/>
      <path id="CMR17-66" d="M 979 2560 
L 1709 2560 
L 1709 2725 
L 966 2725 
L 966 3494 
C 966 4022 1235 4352 1510 4352 
C 1594 4352 1690 4327 1754 4282 
C 1702 4269 1568 4225 1568 4067 
C 1568 3901 1696 3850 1786 3850 
C 1875 3850 2003 3901 2003 4067 
C 2003 4308 1773 4454 1517 4454 
C 1152 4454 653 4156 653 3481 
L 653 2725 
L 141 2725 
L 141 2560 
L 653 2560 
L 653 427 
C 653 184 627 153 218 153 
L 218 -13 
C 371 0 666 0 832 0 
C 1018 0 1344 0 1517 -13 
L 1517 153 
C 1056 153 979 153 979 439 
L 979 2560 
z
" transform="scale(0.015625)"/>
     </defs>
     <use xlink:href="#CMMI12-52" transform="scale(0.996264)"/>
     <use xlink:href="#CMR17-66" transform="translate(74.250826 -14.943915) scale(0.697382)"/>
    </g>
   </g>
   <g id="patch_5">
    <path d="M 29.4776 80.652 
C 30.193648 80.652 30.880466 80.367511 31.386788 79.861188 
C 31.893111 79.354866 32.1776 78.668048 32.1776 77.952 
C 32.1776 77.235952 31.893111 76.549134 31.386788 76.042812 
C 30.880466 75.536489 30.193648 75.252 29.4776 75.252 
C 28.761552 75.252 28.074734 75.536489 27.568412 76.042812 
C 27.062089 76.549134 26.7776 77.235952 26.7776 77.952 
C 26.7776 78.668048 27.062089 79.354866 27.568412 79.861188 
C 28.074734 80.367511 28.761552 80.652 29.4776 80.652 
z
" clip-path="url(#p2359533df8)" style="fill: #ffffff; stroke: #000000; stroke-width: 2; stroke-linejoin: miter"/>
   </g>
   <g id="text_2">
    <!-- $V_\mathrm{in}$ -->
    <g transform="translate(2.980023 81.937056) scale(0.16 -0.16)">
     <defs>
      <path id="CMMI12-56" d="M 3962 3640 
C 4179 3984 4378 4136 4704 4162 
C 4768 4168 4819 4168 4819 4282 
C 4819 4308 4806 4346 4749 4346 
C 4634 4346 4358 4346 4243 4346 
C 4058 4346 3866 4346 3686 4346 
C 3635 4346 3571 4346 3571 4226 
C 3571 4168 3629 4162 3654 4162 
C 3891 4143 3917 4029 3917 3952 
C 3917 3857 3827 3710 3821 3704 
L 1811 540 
L 1363 3969 
C 1363 4160 1696 4160 1766 4160 
C 1862 4160 1920 4160 1920 4282 
C 1920 4346 1850 4346 1830 4346 
C 1722 4346 1594 4346 1485 4346 
L 1126 4346 
C 659 4346 467 4346 461 4346 
C 422 4346 346 4346 346 4230 
C 346 4160 390 4160 493 4160 
C 819 4160 838 4102 858 3944 
L 1370 24 
C 1389 -109 1389 -128 1478 -128 
C 1555 -128 1587 -109 1651 -8 
L 3962 3640 
z
" transform="scale(0.015625)"/>
      <path id="CMR17-69" d="M 992 3909 
C 992 4049 877 4170 730 4170 
C 589 4170 467 4056 467 3909 
C 467 3769 582 3648 730 3648 
C 870 3648 992 3763 992 3909 
z
M 243 2706 
L 243 2541 
C 602 2541 653 2502 653 2197 
L 653 427 
C 653 184 627 153 218 153 
L 218 -13 
C 371 0 646 0 806 0 
C 960 0 1222 0 1370 -13 
L 1370 153 
C 992 153 979 191 979 420 
L 979 2776 
L 243 2706 
z
" transform="scale(0.015625)"/>
      <path id="CMR17-6e" d="M 2656 1933 
C 2656 2259 2592 2790 1837 2790 
C 1331 2790 1069 2400 973 2144 
L 966 2144 
L 966 2790 
L 211 2720 
L 211 2554 
C 589 2554 646 2515 646 2208 
L 646 428 
C 646 184 621 153 211 153 
L 211 -13 
C 365 0 646 0 813 0 
C 979 0 1267 0 1421 -13 
L 1421 153 
C 1011 153 986 178 986 428 
L 986 1658 
C 986 2247 1344 2688 1792 2688 
C 2266 2688 2317 2266 2317 1958 
L 2317 428 
C 2317 184 2291 153 1882 153 
L 1882 -13 
C 2035 0 2317 0 2483 0 
C 2650 0 2938 0 3091 -13 
L 3091 153 
C 2682 153 2656 178 2656 428 
L 2656 1933 
z
" transform="scale(0.015625)"/>
     </defs>
     <use xlink:href="#CMMI12-56" transform="scale(0.996264)"/>
     <use xlink:href="#CMR17-69" transform="translate(56.869579 -14.943915) scale(0.697382)"/>
     <use xlink:href="#CMR17-6e" transform="translate(74.279238 -14.943915) scale(0.697382)"/>
    </g>
   </g>
   <g id="patch_6">
    <path d="M 196.5176 80.652 
C 197.233648 80.652 197.920466 80.367511 198.426788 79.861188 
C 198.933111 79.354866 199.2176 78.668048 199.2176 77.952 
C 199.2176 77.235952 198.933111 76.549134 198.426788 76.042812 
C 197.920466 75.536489 197.233648 75.252 196.5176 75.252 
C 195.801552 75.252 195.114734 75.536489 194.608412 76.042812 
C 194.102089 76.549134 193.8176 77.235952 193.8176 77.952 
C 193.8176 78.668048 194.102089 79.354866 194.608412 79.861188 
C 195.114734 80.367511 195.801552 80.652 196.5176 80.652 
z
" clip-path="url(#p2359533df8)" style="fill: #ffffff; stroke: #000000; stroke-width: 2; stroke-linejoin: miter"/>
   </g>
   <g id="text_3">
    <!-- $V_\mathrm{out}$ -->
    <g transform="translate(204.6176 81.937056) scale(0.16 -0.16)">
     <defs>
      <path id="CMR17-6f" d="M 2758 1356 
C 2758 2176 2163 2816 1466 2816 
C 768 2816 173 2176 173 1356 
C 173 551 768 -64 1466 -64 
C 2163 -64 2758 551 2758 1356 
z
M 1466 51 
C 1165 51 909 230 762 480 
C 602 767 582 1126 582 1408 
C 582 1677 595 2010 762 2298 
C 890 2509 1139 2714 1466 2714 
C 1754 2714 1997 2554 2150 2330 
C 2349 2029 2349 1607 2349 1408 
C 2349 1158 2336 775 2163 467 
C 1984 173 1709 51 1466 51 
z
" transform="scale(0.015625)"/>
      <path id="CMR17-75" d="M 1882 2693 
L 1882 2528 
C 2259 2528 2317 2489 2317 2186 
L 2317 1032 
C 2317 500 2029 38 1555 38 
C 1030 38 986 348 986 678 
L 986 2763 
L 211 2693 
L 211 2528 
C 467 2528 640 2528 646 2274 
L 646 1058 
C 646 633 646 361 813 183 
C 896 101 1056 -64 1517 -64 
C 2061 -64 2272 377 2323 506 
L 2330 506 
L 2330 -63 
L 3091 -63 
L 3091 128 
C 2714 128 2656 166 2656 473 
L 2656 2763 
L 1882 2693 
z
" transform="scale(0.015625)"/>
      <path id="CMR17-74" d="M 966 2560 
L 1862 2560 
L 1862 2725 
L 966 2725 
L 966 3904 
L 851 3904 
C 838 3245 614 2668 70 2668 
L 70 2560 
L 627 2560 
L 627 771 
C 627 650 627 -64 1370 -64 
C 1747 -64 1965 306 1965 777 
L 1965 1140 
L 1850 1140 
L 1850 783 
C 1850 344 1677 51 1408 51 
C 1222 51 966 178 966 758 
L 966 2560 
z
" transform="scale(0.015625)"/>
     </defs>
     <use xlink:href="#CMMI12-56" transform="scale(0.996264)"/>
     <use xlink:href="#CMR17-6f" transform="translate(56.869579 -14.943915) scale(0.697382)"/>
     <use xlink:href="#CMR17-75" transform="translate(88.852761 -14.943915) scale(0.697382)"/>
     <use xlink:href="#CMR17-74" transform="translate(124.479369 -14.943915) scale(0.697382)"/>
    </g>
   </g>
  </g>
 </g>
 <defs>
  <clipPath id="p2359533df8">
   <rect x="0" y="-0" width="232.8384" height="100.632"/>
  </clipPath>
 </defs>
</svg>
